#!OML:ASF E:\acrobat2\Project_11_07_03\Capture day 1\Session 1\Acrobat.ASF
:FULLY-SPECIFIED
:DEGREES
135
root 3.35276 27.8888 -35.2526 7.29892 1.40433 -1.29346
lowerback 1.12588 -0.328425 0.0799132
upperback 2.37314 -0.434754 -0.18878
thorax 1.79738 -0.213772 -0.240145
lowerneck -4.38798 -2.46502 -2.67268
upperneck 17.4959 -3.29879 1.34709
head 6.08186 -1.66975 0.654782
rclavicle 4.47266e-015 2.98177e-015
rhumerus -39.4682 -5.76255 -79.6238
rradius 30.7062
rwrist 4.52103
rhand 1.66166 -21.0771
rfingers 7.12502
rthumb 27.181 -49.1393
lclavicle 4.47266e-015 2.98177e-015
lhumerus -22.9211 -5.71663 79.9679
lradius 23.5262
lwrist 6.93943
lhand -13.3658 -13.2142
lfingers 7.12502
lthumb 12.7406 16.3771
rfemur -10.572 -1.79279 23.4367
rtibia 18.5955
rfoot -14.2566 -9.75958
rtoes -7.23067
lfemur -11.0322 -4.59707 -12.3614
ltibia 19.3268
lfoot -6.99558 -8.00609
ltoes 20.5092
136
root 3.35989 27.8936 -35.2492 7.30169 1.58117 -1.21149
lowerback 1.19112 -0.302091 0.232169
upperback 2.48499 -0.39967 -0.178645
thorax 1.8749 -0.193357 -0.314933
lowerneck -4.33258 -2.37758 -2.64032
upperneck 17.589 -3.15883 1.19768
head 6.09586 -1.61053 0.611979
rclavicle 6.70898e-015 2.98177e-015
rhumerus -39.2804 -5.72695 -79.5055
rradius 30.1638
rwrist 4.90398
rhand 1.91746 -21.1609
rfingers 7.12502
rthumb 27.4256 -49.1846
lclavicle 6.70898e-015 2.98177e-015
lhumerus -22.8938 -5.92705 80.1166
lradius 24.0904
lwrist 7.37432
lhand -13.9822 -13.3484
lfingers 7.12502
lthumb 12.1463 16.279
rfemur -10.7434 -1.83371 23.5186
rtibia 18.7195
rfoot -14.2251 -10.0748
rtoes -7.44981
lfemur -11.5353 -4.3572 -12.3107
ltibia 20.023
lfoot -6.4735 -8.09106
ltoes 21.6845
137
root 3.36791 27.898 -35.2427 7.29289 1.75179 -1.0616
lowerback 1.23106 -0.275165 0.321039
upperback 2.5961 -0.363381 -0.196648
thorax 1.96631 -0.172986 -0.38317
lowerneck -4.25858 -2.29776 -2.60866
upperneck 17.7087 -3.03392 1.07344
head 6.11597 -1.55698 0.576295
rclavicle 1.78906e-015 1.98785e-016
rhumerus -39.1303 -5.7614 -79.3362
rradius 29.6441
rwrist 5.39986
rhand 2.24188 -21.2126
rfingers 7.12502
rthumb 27.7359 -49.1868
lclavicle 1.78906e-015 1.98785e-016
lhumerus -22.8928 -6.27765 80.2856
lradius 24.6603
lwrist 7.89029
lhand -14.5386 -13.5468
lfingers 7.12502
lthumb 11.6098 16.1116
rfemur -10.8709 -1.8628 23.4791
rtibia 18.8081
rfoot -14.1561 -10.3566
rtoes -7.42093
lfemur -12.0164 -4.07508 -12.3886
ltibia 20.7473
lfoot -5.92604 -8.28258
ltoes 22.9838
138
root 3.37707 27.9019 -35.233 7.27807 1.88344 -0.879962
lowerback 1.22856 -0.234351 0.363413
upperback 2.71243 -0.30857 -0.221733
thorax 2.0875 -0.143967 -0.432711
lowerneck -4.1919 -2.24531 -2.57863
upperneck 17.855 -2.94656 0.953123
head 6.1468 -1.52146 0.539354
rclavicle 3.72721e-015 -3.97569e-016
rhumerus -38.9775 -5.87404 -79.111
rradius 29.1247
rwrist 5.99206
rhand 2.60313 -21.2789
rfingers 7.12502
rthumb 28.0813 -49.1969
lclavicle 3.72721e-015 -3.97569e-016
lhumerus -22.8946 -6.72249 80.4808
lradius 25.2241
lwrist 8.45504
lhand -14.9902 -13.7988
lfingers 7.12502
lthumb 11.1742 15.8836
rfemur -10.967 -1.87492 23.3643
rtibia 18.8476
rfoot -14.0023 -10.6337
rtoes -7.48654
lfemur -12.462 -3.74072 -12.551
ltibia 21.479
lfoot -5.38043 -8.57202
ltoes 24.2409
139
root 3.38724 27.9057 -35.2201 7.25463 1.98981 -0.708182
lowerback 1.23405 -0.188516 0.407472
upperback 2.80771 -0.247087 -0.244671
thorax 2.18281 -0.111612 -0.480758
lowerneck -4.16055 -2.19571 -2.5399
upperneck 18.0796 -2.86271 0.829066
head 6.20862 -1.48746 0.498736
rclavicle 3.23025e-015 7.95139e-016
rhumerus -38.87 -6.02631 -78.8423
rradius 28.6126
rwrist 6.64
rhand 2.96707 -21.3872
rfingers 7.12502
rthumb 28.4291 -49.2477
lclavicle 3.23025e-015 7.95139e-016
lhumerus -22.9361 -7.23331 80.6894
lradius 25.7865
lwrist 9.03088
lhand -15.317 -14.0972
lfingers 7.12502
lthumb 10.859 15.6021
rfemur -11.0194 -1.86498 23.23
rtibia 18.8101
rfoot -13.7496 -10.9475
rtoes -7.78141
lfemur -12.8607 -3.35283 -12.7384
ltibia 22.2009
lfoot -4.83338 -8.96719
ltoes 25.3026
140
root 3.39819 27.9098 -35.2046 7.21919 2.1027 -0.575664
lowerback 1.2525 -0.152002 0.481402
upperback 2.88463 -0.198293 -0.253393
thorax 2.25195 -0.0851479 -0.530896
lowerneck -4.16296 -2.14405 -2.49729
upperneck 18.3791 -2.77563 0.70529
head 6.30026 -1.45185 0.457009
rclavicle 3.75206e-015 5.36719e-015
rhumerus -38.7813 -6.21702 -78.544
rradius 28.1043
rwrist 7.33797
rhand 3.30961 -21.5422
rfingers 7.12502
rthumb 28.7564 -49.3476
lclavicle 3.75206e-015 5.36719e-015
lhumerus -23.0101 -7.77626 80.9048
lradius 26.3416
lwrist 9.57223
lhand -15.5075 -14.4388
lfingers 7.12502
lthumb 10.6752 15.27
rfemur -11.0165 -1.83079 23.1157
rtibia 18.6849
rfoot -13.4213 -11.3057
rtoes -8.19153
lfemur -13.2149 -2.94327 -12.9062
ltibia 22.9162
lfoot -4.27356 -9.47389
ltoes 26.3034
141
root 3.40964 27.9147 -35.1877 7.17654 2.21364 -0.496722
lowerback 1.28957 -0.122879 0.592309
upperback 2.94019 -0.159692 -0.242363
thorax 2.28863 -0.0632789 -0.58145
lowerneck -4.19681 -2.09046 -2.45211
upperneck 18.7449 -2.684 0.575218
head 6.41868 -1.41467 0.412471
rclavicle 5.54112e-015 4.87022e-015
rhumerus -38.7378 -6.37538 -78.2457
rradius 27.6657
rwrist 7.997
rhand 3.63148 -21.7701
rfingers 7.12502
rthumb 29.0638 -49.5229
lclavicle 5.54112e-015 4.87022e-015
lhumerus -23.1155 -8.33719 81.1278
lradius 26.887
lwrist 10.052
lhand -15.5845 -14.7309
lfingers 7.12502
lthumb 10.601 14.9817
rfemur -10.9784 -1.76206 23.041
rtibia 18.4992
rfoot -13.0496 -11.688
rtoes -8.64353
lfemur -13.5387 -2.52156 -13.0365
ltibia 23.6417
lfoot -3.71847 -10.0747
ltoes 27.155
142
root 3.42162 27.9205 -35.1698 7.12464 2.32998 -0.469164
lowerback 1.34188 -0.102866 0.742915
upperback 2.97964 -0.133428 -0.215634
thorax 2.3001 -0.0469569 -0.638178
lowerneck -4.26384 -2.04222 -2.39467
upperneck 19.1598 -2.59813 0.436806
head 6.55901 -1.38043 0.362198
rclavicle -8.24956e-015 -1.98785e-016
rhumerus -38.7486 -6.43998 -77.9846
rradius 27.3445
rwrist 8.52346
rhand 3.93927 -22.0987
rfingers 7.12502
rthumb 29.3577 -49.8004
lclavicle -8.24956e-015 -1.98785e-016
lhumerus -23.2483 -8.91152 81.3556
lradius 27.4187
lwrist 10.4465
lhand -15.5743 -15.0099
lfingers 7.12502
lthumb 10.6108 14.7022
rfemur -10.9045 -1.66584 23.0007
rtibia 18.2793
rfoot -12.6831 -12.0649
rtoes -8.97125
lfemur -13.8312 -2.10867 -13.1359
ltibia 24.3796
lfoot -3.18441 -10.7499
ltoes 27.6704
143
root 3.434 27.9274 -35.1511 7.06182 2.42601 -0.485231
lowerback 1.39976 -0.0818849 0.929828
upperback 3.01303 -0.105809 -0.184757
thorax 2.30234 -0.0292124 -0.71099
lowerneck -4.33486 -1.98194 -2.31362
upperneck 19.5863 -2.49741 0.298041
head 6.70391 -1.33778 0.308755
rclavicle -1.71452e-015 2.68359e-015
rhumerus -38.7548 -6.49379 -77.748
rradius 27.0614
rwrist 8.99151
rhand 4.18478 -22.4875
rfingers 7.12502
rthumb 29.5921 -50.1478
lclavicle -1.71452e-015 2.68359e-015
lhumerus -23.3899 -9.48792 81.5745
lradius 27.9252
lwrist 10.7333
lhand -15.507 -15.2402
lfingers 7.12502
lthumb 10.6757 14.4686
rfemur -10.8043 -1.55016 22.9834
rtibia 18.051
rfoot -12.3221 -12.3989
rtoes -9.16514
lfemur -14.0877 -1.71956 -13.2177
ltibia 25.1387
lfoot -2.68988 -11.4853
ltoes 28.0674
144
root 3.44651 27.9348 -35.1315 6.99992 2.51996 -0.530468
lowerback 1.44911 -0.060527 1.12755
upperback 3.03731 -0.0776937 -0.147367
thorax 2.30023 -0.0110827 -0.783204
lowerneck -4.36984 -1.94484 -2.25995
upperneck 19.9803 -2.43434 0.20713
head 6.83428 -1.31158 0.273026
rclavicle 7.11898e-015 7.65321e-015
rhumerus -38.8171 -6.45025 -77.5547
rradius 26.8974
rwrist 9.2851
rhand 4.36675 -22.9108
rfingers 7.12502
rthumb 29.7658 -50.5402
lclavicle 7.11898e-015 7.65321e-015
lhumerus -23.5374 -10.0471 81.7911
lradius 28.4025
lwrist 10.8913
lhand -15.4109 -15.4512
lfingers 7.12502
lthumb 10.7684 14.2528
rfemur -10.6877 -1.43601 22.9735
rtibia 17.8202
rfoot -11.9817 -12.6875
rtoes -9.13792
lfemur -14.3334 -1.38825 -13.2974
ltibia 25.9345
lfoot -2.22614 -12.2638
ltoes 28.6133
145
root 3.45838 27.9424 -35.112 6.94527 2.6236 -0.590089
lowerback 1.49322 -0.0440734 1.31423
upperback 3.05067 -0.0559964 -0.10696
thorax 2.28983 0.00346821 -0.846189
lowerneck -4.35125 -1.92996 -2.23603
upperneck 20.3135 -2.41128 0.179806
head 6.93776 -1.30164 0.260641
rclavicle 5.67779e-015 -3.08116e-015
rhumerus -38.8909 -6.4144 -77.3548
rradius 26.7427
rwrist 9.51815
rhand 4.47386 -23.2408
rfingers 7.12502
rthumb 29.868 -50.8519
lclavicle 5.67779e-015 -3.08116e-015
lhumerus -23.6859 -10.5614 81.9957
lradius 28.8446
lwrist 10.9127
lhand -15.2639 -15.6405
lfingers 7.12502
lthumb 10.9103 14.056
rfemur -10.5675 -1.33148 22.96
rtibia 17.5853
rfoot -11.6681 -12.9565
rtoes -8.99915
lfemur -14.5833 -1.13183 -13.3877
ltibia 26.7677
lfoot -1.79891 -13.0514
ltoes 29.381
146
root 3.47042 27.9499 -35.0913 6.89861 2.68962 -0.660697
lowerback 1.51999 -0.0212712 1.48144
upperback 3.05224 -0.0259714 -0.0620977
thorax 2.27737 0.0215899 -0.893685
lowerneck -4.29125 -1.92981 -2.24084
upperneck 20.5919 -2.41486 0.197954
head 7.01776 -1.30284 0.266472
rclavicle 7.64079e-015 4.27387e-015
rhumerus -38.9323 -6.45077 -77.1174
rradius 26.5284
rwrist 9.78727
rhand 4.50536 -23.422
rfingers 7.12502
rthumb 29.8981 -51.0276
lclavicle 7.64079e-015 4.27387e-015
lhumerus -23.8481 -11.0071 82.1938
lradius 29.2516
lwrist 10.8217
lhand -15.0466 -15.8239
lfingers 7.12502
lthumb 11.1198 13.8614
rfemur -10.4537 -1.20894 22.9324
rtibia 17.3497
rfoot -11.3664 -13.2021
rtoes -8.89511
lfemur -14.8106 -0.956613 -13.4949
ltibia 27.6105
lfoot -1.50443 -13.7931
ltoes 30.2492
147
root 3.48172 27.957 -35.0701 6.8688 2.74707 -0.73324
lowerback 1.53272 -0.000918675 1.60798
upperback 3.03771 0.000609447 -0.00903278
thorax 2.25618 0.0367866 -0.910007
lowerneck -4.21422 -1.95071 -2.27064
upperneck 20.8333 -2.45103 0.246415
head 7.08408 -1.31896 0.284264
rclavicle 6.23221e-015 8.38002e-015
rhumerus -38.9496 -6.56829 -76.8273
rradius 26.249
rwrist 10.1173
rhand 4.47959 -23.4566
rfingers 7.12502
rthumb 29.8735 -51.0667
lclavicle 6.23221e-015 8.38002e-015
lhumerus -24.0343 -11.3994 82.3932
lradius 29.6386
lwrist 10.6708
lhand -14.7868 -15.9862
lfingers 7.12502
lthumb 11.3704 13.6855
rfemur -10.3569 -1.03627 22.8866
rtibia 17.1227
rfoot -11.1151 -13.4496
rtoes -8.51493
lfemur -15.0361 -0.871698 -13.6178
ltibia 28.4608
lfoot -1.3632 -14.4715
ltoes 31.0844
148
root 3.49258 27.9637 -35.0479 6.85072 2.81115 -0.803871
lowerback 1.5145 0.00879583 1.69666
upperback 3.02171 0.0123593 0.0499919
thorax 2.2504 0.0437472 -0.899081
lowerneck -4.13097 -1.96705 -2.29724
upperneck 21.0422 -2.48225 0.297282
head 7.13881 -1.33223 0.30291
rclavicle -7.79609e-015 1.25483e-015
rhumerus -38.9194 -6.78096 -76.4936
rradius 25.9142
rwrist 10.5302
rhand 4.4182 -23.3923
rfingers 7.12502
rthumb 29.8149 -51.0129
lclavicle -7.79609e-015 1.25483e-015
lhumerus -24.2314 -11.7405 82.589
lradius 30.01
lwrist 10.5019
lhand -14.487 -16.2819
lfingers 7.12502
lthumb 11.6595 13.3737
rfemur -10.2665 -0.825313 22.8182
rtibia 16.8702
rfoot -10.8616 -13.7264
rtoes -8.06671
lfemur -15.2423 -0.884771 -13.7565
ltibia 29.2856
lfoot -1.37416 -15.0568
ltoes 31.7868
